<svg xmlns="http://www.w3.org/2000/svg" viewBox="0 0 620 721.33"><defs><style>.cls-1,.cls-4{fill:#30549b;}.cls-2{fill:none;}.cls-2,.cls-3,.cls-4{stroke:#000;stroke-miterlimit:10;}.cls-2,.cls-4{stroke-width:20px;}.cls-3{stroke-width:10px;}.cls-5{fill:#4681e0;}</style></defs><g id="Ebene_2" data-name="Ebene 2"><g id="Ebene_1-2" data-name="Ebene 1"><path class="cls-1" d="M310,711.33a300,300,0,1,1,212.13-87.87A298,298,0,0,1,310,711.33Z"/><path d="M310,121.33a289,289,0,1,1-112.88,22.78A288.12,288.12,0,0,1,310,121.33m0-20c-171.21,0-310,138.79-310,310s138.79,310,310,310,310-138.8,310-310-138.79-310-310-310Z"/><line class="cls-2" x1="310" y1="116.33" x2="310" y2="708.33"/><path class="cls-2" d="M177,498.33c0,64.67,59.49,117,133,117"/><circle class="cls-3" cx="196.5" cy="332.83" r="35.5"/><path class="cls-2" d="M237,312.33a93.36,93.36,0,0,0-40-26c-29.77-9.69-55.22-1-63,2"/><path class="cls-4" d="M39,281.33c-3.14-8.43-6-17.21-8.35-26.35C6,160.93,36.32,73.31,62.42,19.43c22.33,30.9,58,69.76,111.56,96.66a289.32,289.32,0,0,0,29.31,12.73A328.72,328.72,0,0,0,39,281.33Z"/><path class="cls-5" d="M321,122.33q-.5,289.5-1,579c154.36-5.84,278.15-133.11,280-286C601.88,260.19,477.61,128.8,321,122.33Z"/><circle class="cls-3" cx="428.5" cy="332.83" r="35.5"/><path class="cls-2" d="M448.08,498.76c0,64.67-59.49,117-133,117"/><line class="cls-2" x1="490.08" y1="535.49" x2="443.75" y2="477.79"/><line class="cls-2" x1="457.9" y1="479.67" x2="400.1" y2="525.88"/></g></g></svg>